<svg width="103" height="102" viewBox="0 0 103 102" fill="none" xmlns="http://www.w3.org/2000/svg">
<g filter="url(#filter0_d_2_6854)">
<rect x="5.5" y="3" width="92" height="92" rx="21.4667" fill="#242424"/>
</g>
<g filter="url(#filter1_dd_2_6854)">
<path fill-rule="evenodd" clip-rule="evenodd" d="M54.7585 16.9917C54.7585 18.6853 53.3855 20.0583 51.6919 20.0583C49.9982 20.0583 48.6252 18.6853 48.6252 16.9917C48.6252 15.298 49.9982 13.925 51.6919 13.925C53.3855 13.925 54.7585 15.298 54.7585 16.9917ZM53.2252 16.9917C53.2252 17.8385 52.5387 18.525 51.6918 18.525C50.845 18.525 50.1585 17.8385 50.1585 16.9917C50.1585 16.1448 50.845 15.4583 51.6918 15.4583C52.5387 15.4583 53.2252 16.1448 53.2252 16.9917ZM34.3077 30.4071C38.6499 26.3035 44.444 23.7201 50.8386 23.5083V26.5442C45.2816 26.7534 40.2455 28.9977 36.454 32.5534L34.3077 30.4071ZM52.5451 23.5083V26.5442C58.102 26.7535 63.138 28.9978 66.9295 32.5535L69.0758 30.4072C64.7336 26.3036 58.9396 23.7202 52.5451 23.5083ZM37.7956 33.895C41.2427 30.6816 45.8051 28.6491 50.8386 28.4419V31.289C46.5903 31.4925 42.7382 33.2073 39.8082 35.9076L37.7956 33.895ZM52.5451 28.4419V31.289C56.7933 31.4926 60.6454 33.2074 63.5753 35.9077L65.5879 33.8951C62.1409 30.6817 57.5785 28.6492 52.5451 28.4419ZM41.1503 37.2497C43.735 34.8911 47.1137 33.3879 50.8386 33.1877V37.5578C48.3171 37.7463 46.0266 38.7636 44.2386 40.3381L41.1503 37.2497ZM52.5451 33.1877V37.5578C55.0665 37.7464 57.3569 38.7637 59.1449 40.3382L62.2332 37.2498C59.6486 34.8912 56.27 33.388 52.5451 33.1877ZM60.3373 41.5592C61.8118 43.3159 62.7608 45.5285 62.9422 47.955H67.3124C67.1173 44.3255 65.6849 41.0247 63.4296 38.4668L60.3373 41.5592ZM62.9422 49.6616C62.7537 52.183 61.7365 54.4735 60.162 56.2614L63.2504 59.3498C65.6089 56.7651 67.1122 53.3865 67.3124 49.6616H62.9422ZM58.941 57.4539C57.1843 58.9284 54.9717 59.8774 52.5451 60.0589V64.429C56.1747 64.2339 59.4755 62.8016 62.0334 60.5462L58.941 57.4539ZM50.8386 60.0589C48.4119 59.8775 46.1993 58.9285 44.4425 57.454L41.3502 60.5463C43.9081 62.8017 47.2089 64.234 50.8386 64.4291V60.0589ZM43.2215 56.2615C41.647 54.4736 40.6297 52.1831 40.4412 49.6616H36.071C36.2712 53.3865 37.7745 56.7652 40.1331 59.3499L43.2215 56.2615ZM40.4412 47.955C40.6226 45.5284 41.5717 43.3158 43.0462 41.5591L39.9539 38.4667C37.6985 41.0246 36.2661 44.3254 36.071 47.955H40.4412ZM36.5967 35.1096L38.6107 37.1235C36.0145 40.0279 34.3713 43.8022 34.1723 47.955H31.3252C31.5285 43.0171 33.4885 38.5326 36.5967 35.1096ZM31.3252 49.6616H34.1723C34.3758 53.9099 36.0907 57.762 38.7911 60.692L36.7784 62.7046C33.565 59.2575 31.5325 54.695 31.3252 49.6616ZM37.993 63.9034L40.007 61.8895C42.9114 64.4857 46.6857 66.1288 50.8386 66.3277V69.1749C45.9007 68.9716 41.416 67.0116 37.993 63.9034ZM52.5451 69.1748V66.3277C56.6979 66.1287 60.4722 64.4855 63.3765 61.8894L65.3905 63.9033C61.9675 67.0115 57.483 68.9715 52.5451 69.1748ZM66.6051 62.7045L64.5924 60.6918C67.2927 57.7619 69.0076 53.9098 69.211 49.6616H72.0582C71.8509 54.695 69.8185 59.2574 66.6051 62.7045ZM72.0582 47.955H69.211C69.0121 43.8022 67.3689 40.028 64.7728 37.1237L66.7868 35.1097C69.8949 38.5327 71.8548 43.0172 72.0582 47.955ZM73.9559 47.955C73.7502 42.4938 71.5789 37.5356 68.129 33.7675L70.2762 31.6203C74.2733 35.9401 76.7831 41.6563 76.9917 47.955H73.9559ZM73.9559 49.6616H76.9917C76.78 56.0561 74.1965 61.8502 70.0929 66.1923L67.9466 64.0461C71.5023 60.2545 73.7466 55.2185 73.9559 49.6616ZM66.7327 65.2456L68.8798 67.3927C64.56 71.3899 58.8439 73.8997 52.5451 74.1083V71.0725C58.0064 70.8668 62.9646 68.6955 66.7327 65.2456ZM50.8386 71.0725V74.1083C44.5397 73.8997 38.8235 71.39 34.5037 67.3928L36.6508 65.2457C40.419 68.6956 45.3773 70.8669 50.8386 71.0725ZM35.4368 64.0462L33.2906 66.1924C29.187 61.8502 26.6035 56.0561 26.3917 49.6616H29.4275C29.6367 55.2185 31.8811 60.2547 35.4368 64.0462ZM29.4275 47.955H26.3917C26.6004 41.6562 29.1101 35.94 33.1073 31.6202L35.2545 33.7673C31.8045 37.5355 29.6332 42.4937 29.4275 47.955Z" fill="url(#paint0_linear_2_6854)"/>
</g>
<g filter="url(#filter2_dd_2_6854)">
<path fill-rule="evenodd" clip-rule="evenodd" d="M50.8386 23.7C44.444 23.9118 38.6499 26.4952 34.3077 30.5988L36.4539 32.7451C40.2455 29.1894 45.2816 26.945 50.8386 26.7358V23.7ZM52.5451 26.7358V23.7C58.9396 23.9118 64.7337 26.4953 69.0758 30.5989L66.9295 32.7452C63.1381 29.1895 58.102 26.9451 52.5451 26.7358ZM50.8386 28.6335C45.8051 28.8407 41.2426 30.8732 37.7955 34.0867L39.8082 36.0993C42.7382 33.399 46.5903 31.6842 50.8386 31.4807V28.6335ZM52.5451 31.4807V28.6335C57.5785 28.8408 62.1409 30.8734 65.588 34.0868L63.5753 36.0994C60.6454 33.3991 56.7933 31.6842 52.5451 31.4807ZM50.8386 33.3793C47.1137 33.5795 43.735 35.0828 41.1503 37.4414L44.2386 40.5297C46.0266 38.9552 48.3171 37.938 50.8386 37.7494V33.3793ZM52.5451 37.7495V33.3794C56.27 33.5796 59.6486 35.0829 62.2333 37.4415L59.1449 40.5298C57.357 38.9553 55.0665 37.938 52.5451 37.7495ZM62.9422 48.1467C62.7608 45.7202 61.8118 43.5076 60.3373 41.7509L63.4297 38.6585C65.685 41.2164 67.1173 44.5172 67.3124 48.1467H62.9422ZM60.162 56.4531C61.7364 54.6652 62.7537 52.3747 62.9422 49.8533H67.3124C67.1122 53.5782 65.6089 56.9568 63.2503 59.5415L60.162 56.4531ZM52.5451 60.2505C54.9717 60.069 57.1843 59.12 58.9409 57.6455L62.0333 60.7379C59.4755 62.9932 56.1747 64.4256 52.5451 64.6207V60.2505ZM44.4426 57.6456C46.1993 59.1201 48.412 60.0691 50.8386 60.2505V64.6207C47.209 64.4256 43.9081 62.9933 41.3502 60.738L44.4426 57.6456ZM40.4412 49.8533C40.6297 52.3748 41.647 54.6653 43.2215 56.4532L40.1332 59.5416C37.7745 56.9569 36.2712 53.5782 36.071 49.8533H40.4412ZM43.0462 41.7508C41.5716 43.5075 40.6226 45.7201 40.4412 48.1467H36.071C36.2661 44.5171 37.6985 41.2163 39.9538 38.6584L43.0462 41.7508ZM38.6106 37.3152L36.5967 35.3013C33.4885 38.7243 31.5285 43.2089 31.3252 48.1467H34.1723C34.3713 43.9939 36.0145 40.2196 38.6106 37.3152ZM34.1723 49.8533H31.3252C31.5325 54.8868 33.565 59.4492 36.7784 62.8963L38.7911 60.8837C36.0907 57.9537 34.3758 54.1016 34.1723 49.8533ZM40.007 62.0812L37.9931 64.0951C41.4161 67.2033 45.9007 69.1632 50.8386 69.3665V66.5194C46.6857 66.3205 42.9114 64.6774 40.007 62.0812ZM52.5451 66.5194V69.3665C57.4829 69.1631 61.9675 67.2032 65.3904 64.095L63.3765 62.0811C60.4722 64.6772 56.6979 66.3204 52.5451 66.5194ZM64.5924 60.8835L66.605 62.8962C69.8184 59.4491 71.8509 54.8867 72.0582 49.8533H69.211C69.0076 54.1015 67.2927 57.9536 64.5924 60.8835ZM69.211 48.1467H72.0582C71.8549 43.2089 69.895 38.7244 66.7868 35.3014L64.7728 37.3154C67.3689 40.2197 69.0121 43.9939 69.211 48.1467ZM68.129 33.9592C71.5789 37.7273 73.7502 42.6855 73.9559 48.1467H76.9917C76.7831 41.848 74.2734 36.1318 70.2762 31.812L68.129 33.9592ZM76.9917 49.8533H73.9559C73.7466 55.4102 71.5023 60.4462 67.9466 64.2378L70.0929 66.3841C74.1965 62.0419 76.7799 56.2478 76.9917 49.8533ZM68.8798 67.5844L66.7327 65.4373C62.9645 68.8872 58.0064 71.0585 52.5451 71.2642V74.3C58.8439 74.0914 64.56 71.5816 68.8798 67.5844ZM50.8386 74.3V71.2642C45.3773 71.0586 40.419 68.8873 36.6508 65.4374L34.5037 67.5845C38.8235 71.5817 44.5398 74.0914 50.8386 74.3ZM33.2906 66.3841L35.4369 64.2379C31.8811 60.4464 29.6368 55.4102 29.4275 49.8533H26.3917C26.6035 56.2478 29.187 62.0419 33.2906 66.3841ZM26.3917 48.1467H29.4275C29.6331 42.6854 31.8045 37.7272 35.2544 33.959L33.1073 31.8119C29.1101 36.1318 26.6003 41.8479 26.3917 48.1467Z" fill="url(#paint1_angular_2_6854)" shape-rendering="crispEdges"/>
</g>
<path fill-rule="evenodd" clip-rule="evenodd" d="M51.6917 20.25C53.3853 20.25 54.7583 18.877 54.7583 17.1833C54.7583 15.4897 53.3853 14.1167 51.6917 14.1167C49.998 14.1167 48.625 15.4897 48.625 17.1833C48.625 18.877 49.998 20.25 51.6917 20.25ZM51.6916 18.7166C52.5385 18.7166 53.225 18.0302 53.225 17.1833C53.225 16.3365 52.5385 15.65 51.6916 15.65C50.8448 15.65 50.1583 16.3365 50.1583 17.1833C50.1583 18.0302 50.8448 18.7166 51.6916 18.7166Z" fill="white"/>
<path fill-rule="evenodd" clip-rule="evenodd" d="M82.1669 42.8667C82.1669 42.655 82.3386 42.4833 82.5503 42.4833H83.3169C83.5286 42.4833 83.7003 42.655 83.7003 42.8667V43.908L84.7563 44.8937C84.8826 45.0116 85.0183 45.119 85.162 45.2148C85.5868 45.498 86.0735 45.6747 86.5811 45.7299L86.6325 45.7355C86.709 45.7439 86.7669 45.8084 86.7669 45.8853L86.7669 47.093C86.7669 47.144 86.7331 47.1888 86.6841 47.2028L86.4398 47.2726C86.2146 47.337 85.9765 47.3409 85.7492 47.2841C85.4711 47.2146 85.2056 47.1018 84.9624 46.9498L84.8763 46.896C84.4601 46.6359 84.0669 46.342 83.7003 46.0176V51.2042L83.6968 51.2035C83.6384 52.006 82.8471 52.6417 81.8794 52.6417C80.8738 52.6417 80.0586 51.9552 80.0586 51.1083C80.0586 50.2615 80.8738 49.575 81.8794 49.575C81.9773 49.575 82.0733 49.5815 82.1669 49.594V42.8667Z" fill="white"/>
<path fill-rule="evenodd" clip-rule="evenodd" d="M51.6917 83.8833C53.3853 83.8833 54.7583 82.5103 54.7583 80.8167C54.7583 79.123 53.3853 77.75 51.6917 77.75C49.998 77.75 48.625 79.123 48.625 80.8167C48.625 82.5103 49.998 83.8833 51.6917 83.8833ZM51.6916 82.35C52.5385 82.35 53.225 81.6635 53.225 80.8167C53.225 79.9698 52.5385 79.2833 51.6916 79.2833C50.8448 79.2833 50.1583 79.9698 50.1583 80.8167C50.1583 81.6635 50.8448 82.35 51.6916 82.35Z" fill="white"/>
<path fill-rule="evenodd" clip-rule="evenodd" d="M19.4917 51.6833C21.1854 51.6833 22.5584 50.3103 22.5584 48.6167C22.5584 46.923 21.1854 45.55 19.4917 45.55C17.798 45.55 16.425 46.923 16.425 48.6167C16.425 50.3103 17.798 51.6833 19.4917 51.6833ZM19.4917 50.15C20.3385 50.15 21.025 49.4635 21.025 48.6167C21.025 47.7698 20.3385 47.0833 19.4917 47.0833C18.6448 47.0833 17.9583 47.7698 17.9583 48.6167C17.9583 49.4635 18.6448 50.15 19.4917 50.15Z" fill="white"/>
<circle cx="19.4918" cy="48.6166" r="0.766667" fill="white"/>
<defs>
<filter id="filter0_d_2_6854" x="0.708333" y="0.125" width="101.583" height="101.583" filterUnits="userSpaceOnUse" color-interpolation-filters="sRGB">
<feFlood flood-opacity="0" result="BackgroundImageFix"/>
<feColorMatrix in="SourceAlpha" type="matrix" values="0 0 0 0 0 0 0 0 0 0 0 0 0 0 0 0 0 0 127 0" result="hardAlpha"/>
<feMorphology radius="0.958333" operator="erode" in="SourceAlpha" result="effect1_dropShadow_2_6854"/>
<feOffset dy="1.91667"/>
<feGaussianBlur stdDeviation="2.875"/>
<feComposite in2="hardAlpha" operator="out"/>
<feColorMatrix type="matrix" values="0 0 0 0 0.498039 0 0 0 0 0.337255 0 0 0 0 0.85098 0 0 0 0.25 0"/>
<feBlend mode="normal" in2="BackgroundImageFix" result="effect1_dropShadow_2_6854"/>
<feBlend mode="normal" in="SourceGraphic" in2="effect1_dropShadow_2_6854" result="shape"/>
</filter>
<filter id="filter1_dd_2_6854" x="25.6251" y="12.5833" width="52.1333" height="63.0583" filterUnits="userSpaceOnUse" color-interpolation-filters="sRGB">
<feFlood flood-opacity="0" result="BackgroundImageFix"/>
<feColorMatrix in="SourceAlpha" type="matrix" values="0 0 0 0 0 0 0 0 0 0 0 0 0 0 0 0 0 0 127 0" result="hardAlpha"/>
<feOffset dy="-0.575"/>
<feGaussianBlur stdDeviation="0.383333"/>
<feComposite in2="hardAlpha" operator="out"/>
<feColorMatrix type="matrix" values="0 0 0 0 1 0 0 0 0 1 0 0 0 0 1 0 0 0 0.09 0"/>
<feBlend mode="normal" in2="BackgroundImageFix" result="effect1_dropShadow_2_6854"/>
<feColorMatrix in="SourceAlpha" type="matrix" values="0 0 0 0 0 0 0 0 0 0 0 0 0 0 0 0 0 0 127 0" result="hardAlpha"/>
<feOffset dy="0.766667"/>
<feGaussianBlur stdDeviation="0.383333"/>
<feComposite in2="hardAlpha" operator="out"/>
<feColorMatrix type="matrix" values="0 0 0 0 0 0 0 0 0 0 0 0 0 0 0 0 0 0 0.25 0"/>
<feBlend mode="normal" in2="effect1_dropShadow_2_6854" result="effect2_dropShadow_2_6854"/>
<feBlend mode="normal" in="SourceGraphic" in2="effect2_dropShadow_2_6854" result="shape"/>
</filter>
<filter id="filter2_dd_2_6854" x="25.6251" y="22.3583" width="52.1333" height="53.475" filterUnits="userSpaceOnUse" color-interpolation-filters="sRGB">
<feFlood flood-opacity="0" result="BackgroundImageFix"/>
<feColorMatrix in="SourceAlpha" type="matrix" values="0 0 0 0 0 0 0 0 0 0 0 0 0 0 0 0 0 0 127 0" result="hardAlpha"/>
<feOffset dy="-0.575"/>
<feGaussianBlur stdDeviation="0.383333"/>
<feComposite in2="hardAlpha" operator="out"/>
<feColorMatrix type="matrix" values="0 0 0 0 1 0 0 0 0 1 0 0 0 0 1 0 0 0 0.09 0"/>
<feBlend mode="normal" in2="BackgroundImageFix" result="effect1_dropShadow_2_6854"/>
<feColorMatrix in="SourceAlpha" type="matrix" values="0 0 0 0 0 0 0 0 0 0 0 0 0 0 0 0 0 0 127 0" result="hardAlpha"/>
<feOffset dy="0.766667"/>
<feGaussianBlur stdDeviation="0.383333"/>
<feComposite in2="hardAlpha" operator="out"/>
<feColorMatrix type="matrix" values="0 0 0 0 0 0 0 0 0 0 0 0 0 0 0 0 0 0 0.25 0"/>
<feBlend mode="normal" in2="effect1_dropShadow_2_6854" result="effect2_dropShadow_2_6854"/>
<feBlend mode="normal" in="SourceGraphic" in2="effect2_dropShadow_2_6854" result="shape"/>
</filter>
<linearGradient id="paint0_linear_2_6854" x1="51.6917" y1="13.925" x2="51.6917" y2="74.1083" gradientUnits="userSpaceOnUse">
<stop stop-color="#FEFEFE"/>
<stop offset="1" stop-color="#ADADAD"/>
</linearGradient>
<radialGradient id="paint1_angular_2_6854" cx="0" cy="0" r="1" gradientUnits="userSpaceOnUse" gradientTransform="translate(51.6917 52.8124) rotate(-90) scale(16.497 53.4259)">
<stop stop-color="white" stop-opacity="0"/>
<stop offset="0.45" stop-color="#7F56D9" stop-opacity="0.37"/>
<stop offset="1" stop-color="#ADADAD" stop-opacity="0"/>
</radialGradient>
</defs>
</svg>
