<svg width="21" height="20" viewBox="0 0 21 20" fill="none" xmlns="http://www.w3.org/2000/svg">
<g clip-path="url(#clip0_7_3442)">
<path d="M1.08337 3.33331V8.33331H6.08337" stroke="white" stroke-width="1.66667" stroke-linecap="round" stroke-linejoin="round"/>
<path d="M3.17504 12.5C3.71537 14.0337 4.73949 15.3502 6.09309 16.2512C7.44669 17.1522 9.05644 17.5889 10.6798 17.4954C12.3032 17.402 13.8522 16.7835 15.0935 15.7332C16.3348 14.6828 17.2011 13.2575 17.5619 11.672C17.9227 10.0865 17.7584 8.42667 17.0939 6.94262C16.4293 5.45857 15.3005 4.2307 13.8774 3.44401C12.4543 2.65732 10.8141 2.35442 9.20394 2.58097C7.59375 2.80751 6.1008 3.55122 4.95004 4.70004L1.08337 8.33337" stroke="white" stroke-width="1.66667" stroke-linecap="round" stroke-linejoin="round"/>
</g>
<defs>
<clipPath id="clip0_7_3442">
<rect width="20" height="20" fill="white" transform="translate(0.25)"/>
</clipPath>
</defs>
</svg>
